<?xml version="1.0" encoding="UTF-8"?> <svg xmlns="http://www.w3.org/2000/svg" fill="none" viewBox="0 0 43 80"><path fill="#A9A9AA" d="M27.997 48.8084c1.7149-1.3416 3.6367-2.3954 5.69-3.12 2.8788-1.0581 5.8624-1.8056 8.9-2.23-.12-3.84-.34-7.67-.69-11-6.4826 1.001-12.8192 2.7875-18.87 5.32 1.4034 3.7856 3.0639 7.4709 4.97 11.03Z"></path><path fill="#159638" d="M23.647 63.7784c-.0097 4.1072.2945 8.2091.91 12.27 3.57-1.09 7.27-2.38 10.49-3.67 8-3.17 7.52-4.5 7.6-8.27 0-2.23.22-9.66.05-17.63-2.7275.3946-5.4078 1.0646-8 2-8.95 3.27-10.77 10.99-11.05 15.3Z"></path><path fill="#DB4F25" d="M20.507 29.6584c.47 1.84 1 3.6 1.56 5.29 6.2411-2.6128 12.7804-4.4467 19.47-5.46-2.18-15.38-6.54-23.93002-9.37-27.40002-2.64-3.24-7.3-2.709998-10.48 1.59-.66.89-1.4 2-2.19 3.18-1.14 4.29002-1.5 12.91002 1.01 22.80002Z"></path><path fill="#FF9536" d="M19.3069 36.1784c-.61-1.83-1.2-3.77-1.71-5.78-1.4369-5.5493-2.1098-11.2688-2-17-2.1179 3.9329-3.9493 8.0135-5.48 12.21-2.86901 7.637-5.24719 15.4496-7.11995 23.39 4.64-4.8 10.44995-9.88 16.30995-12.82Z"></path><path fill="#1C63BD" d="M20.6569 63.5784c.2574-4.6651 2.0465-9.1151 5.09-12.66-2.0939-3.8378-3.9086-7.8214-5.43-11.92-6.85 3.58-13.77995 10.36-18.58995 15.7-2.140003 10.73-2.420003 17.18-.11 21.43 2.31 4.25 6.38 3.26 11.37995 2.68 2.9395-.4234 5.844-1.0618 8.69-1.91-.52-3.54-1.26-9.83-1.03-13.32Z"></path></svg> 